PathFileType	4	(X/Y/Z)	/Users/itak/Documents/Research/Walk-IL/dataset/trc/00095_00006.trc
DataRate	CameraRate	NumFrames	NumMarkers	Units	OrigDataRate	OrigDataStartFrame	OrigNumFrames
100.000000	100.000000	4	53	mm	100.000000	0	534
Frame#	Time	RPSI			LPSI			L3			STRN			T10			C7			CLAV			RBAK			LBAK			LSHO			LUPA			LAEL			LAOL			LWTS			LWPS			LFRA			LIFD			LHPS			LHTS			RSHO			RUPA			RAEL			RAOL			RWTS			RWPS			RFRA			RIFD			RHTS			RHPS			RBHD			LFHD			RFHD			LBHD			LHIP			RHIP			RASI			LASI			LKNE			LTHI			LANK			LTIP			LTOE			LMT1			LMT5			LHEE			RKNE			RTHI			RANK			RTIP			RTOE			RMT1			RMT5			RHEE			
		X1	Y1	Z1	X2	Y2	Z2	X3	Y3	Z3	X4	Y4	Z4	X5	Y5	Z5	X6	Y6	Z6	X7	Y7	Z7	X8	Y8	Z8	X9	Y9	Z9	X10	Y10	Z10	X11	Y11	Z11	X12	Y12	Z12	X13	Y13	Z13	X14	Y14	Z14	X15	Y15	Z15	X16	Y16	Z16	X17	Y17	Z17	X18	Y18	Z18	X19	Y19	Z19	X20	Y20	Z20	X21	Y21	Z21	X22	Y22	Z22	X23	Y23	Z23	X24	Y24	Z24	X25	Y25	Z25	X26	Y26	Z26	X27	Y27	Z27	X28	Y28	Z28	X29	Y29	Z29	X30	Y30	Z30	X31	Y31	Z31	X32	Y32	Z32	X33	Y33	Z33	X34	Y34	Z34	X35	Y35	Z35	X36	Y36	Z36	X37	Y37	Z37	X38	Y38	Z38	X39	Y39	Z39	X40	Y40	Z40	X41	Y41	Z41	X42	Y42	Z42	X43	Y43	Z43	X44	Y44	Z44	X45	Y45	Z45	X46	Y46	Z46	X47	Y47	Z47	X48	Y48	Z48	X49	Y49	Z49	X50	Y50	Z50	X51	Y51	Z51	X52	Y52	Z52	X53	Y53	Z53	

1	0	-1370.207885742188	1038.34619140625	94.74860382080078	-1378.724975585938	1026.5771484375	-79.95243072509766	-1372.012573242188	1085.259399414062	0.5281941294670105	-1125.738159179688	1287.349975585938	1.33642053604126	-1392.685302734375	1220.034545898438	-4.475344657897949	-1335.218017578125	1487.201049804688	-9.977540016174316	-1155.907470703125	1402.059936523438	-3.118880033493042	-1399.3740234375	1349.146850585938	66.08960723876953	-1353.748779296875	1447.742553710938	-112.8224563598633	-1247.699096679688	1451.40087890625	-182.2398376464844	-1258.348388671875	1321.89453125	-257.5517272949219	-1230.745727539062	1106.894287109375	-270.2452697753906	-1299.845092773438	1092.78857421875	-189.9512939453125	-1139.662231445312	870.734130859375	-194.3573913574219	-1191.802368164062	857.767333984375	-259.0592651367188	-1206.372680664062	998.6549072265625	-273.7101440429688	-1128.646362304688	684.7716674804688	-169.5676727294922	-1157.550170898438	777.564697265625	-249.8281402587891	-1117.394409179688	787.3980712890625	-195.0823364257812	-1276.148193359375	1452.12158203125	168.8140411376953	-1284.638793945312	1380.63525390625	233.9334411621094	-1299.3193359375	1111.520751953125	254.0028076171875	-1282.956665039062	1092.100219726562	155.6719665527344	-1152.080932617188	864.9002685546875	216.8041229248047	-1222.474853515625	848.32763671875	267.076416015625	-1283.70947265625	1033.83544921875	259.2662353515625	-1140.081420898438	677.570068359375	202.8954772949219	-1124.646606445312	764.8532104492188	218.6535339355469	-1182.346435546875	760.4982299804688	271.5282592773438	-1324.73291015625	1640.341796875	52.7548942565918	-1141.553100585938	1717.264892578125	-46.88164901733398	-1168.32763671875	1707.4208984375	75.57131958007812	-1305.776489257812	1656.61962890625	-82.69499969482422	-1273.312255859375	962.2208862304688	-167.6048736572266	-1302.984741210938	970.263916015625	175.1860198974609	-1179.256591796875	984.0494995117188	152.4141845703125	-1161.190551757812	974.1325073242188	-116.5253753662109	-1181.876831054688	503.15478515625	-123.2922897338867	-1220.27001953125	641.8797607421875	-157.9261474609375	-1327.300048828125	53.59632110595703	-141.59375	-1260.6669921875	264.7922973632812	-146.4730377197266	-1120.208618164062	46.76028442382812	-153.4036102294922	-1165.17236328125	46.17518997192383	-95.31795501708984	-1226.5458984375	45.85813903808594	-187.9756622314453	-1371.593017578125	50.13315200805664	-60.53364181518555	-1208.1181640625	521.15576171875	152.3499908447266	-1212.962768554688	792.0980224609375	182.2927856445312	-1314.484375	46.32772064208984	149.8820190429688	-1232.318725585938	397.541259765625	158.3780670166016	-1096.630249023438	43.67619323730469	121.087516784668	-1157.2607421875	47.03428649902344	78.61698150634766	-1191.369995117188	50.28082656860352	171.0571594238281	-1360.278686523438	46.49078750610352	91.38324737548828	
2	0.01	-1370.112915039062	1038.33740234375	94.77595520019531	-1378.68359375	1026.577270507812	-79.94387054443359	-1371.939819335938	1085.24462890625	0.5522491335868835	-1125.692138671875	1287.335083007812	1.342904806137085	-1392.650390625	1220.019165039062	-4.473405361175537	-1335.169311523438	1487.181762695312	-9.951769828796387	-1155.877685546875	1402.050903320312	-3.122035264968872	-1399.347778320312	1349.133178710938	66.08362579345703	-1353.710815429688	1447.725952148438	-112.8228607177734	-1247.649047851562	1451.392211914062	-182.2346954345703	-1258.24853515625	1321.877807617188	-257.5295715332031	-1230.58544921875	1106.891967773438	-270.2261352539062	-1299.73876953125	1092.753540039062	-189.9516754150391	-1139.504272460938	870.7398071289062	-194.3782043457031	-1191.613159179688	857.7144165039062	-259.1033020019531	-1206.257568359375	998.6487426757812	-273.7261657714844	-1128.421020507812	684.7403564453125	-169.6260070800781	-1157.336791992188	777.5723266601562	-249.9521942138672	-1117.15966796875	787.4061889648438	-195.1528778076172	-1276.085327148438	1452.098876953125	168.8337860107422	-1284.596557617188	1380.61279296875	233.9333648681641	-1299.324584960938	1111.489379882812	253.9759826660156	-1282.970092773438	1092.09326171875	155.6350402832031	-1152.144165039062	864.8131103515625	216.7397308349609	-1222.542114257812	848.2737426757812	267.0032958984375	-1283.727172851562	1033.813110351562	259.2303771972656	-1140.178344726562	677.5098266601562	202.8030090332031	-1124.766235351562	764.7936401367188	218.5663146972656	-1182.352783203125	760.4385986328125	271.434326171875	-1324.6279296875	1640.379638671875	52.79608535766602	-1141.42333984375	1717.239501953125	-46.85291290283203	-1168.202392578125	1707.371948242188	75.58856964111328	-1305.714111328125	1656.63818359375	-82.70674133300781	-1273.22119140625	962.2224731445312	-167.5927429199219	-1302.885131835938	970.246826171875	175.1984558105469	-1179.186279296875	984.0431518554688	152.3848114013672	-1161.144165039062	974.1339111328125	-116.5437316894531	-1181.881469726562	503.1510314941406	-123.303596496582	-1220.2412109375	641.8793334960938	-157.9175415039062	-1327.299438476562	53.59642028808594	-141.5969390869141	-1260.663940429688	264.7989807128906	-146.4829254150391	-1120.2109375	46.76092529296875	-153.4100036621094	-1165.177124023438	46.177978515625	-95.31935882568359	-1226.55078125	45.85401153564453	-187.9761810302734	-1371.591674804688	50.13498687744141	-60.53269577026367	-1208.047485351562	521.1383666992188	152.3385009765625	-1212.821411132812	792.0830688476562	182.2642822265625	-1314.50439453125	46.34816741943359	149.8618011474609	-1232.244873046875	397.5258483886719	158.3670349121094	-1096.62890625	43.6732177734375	121.0831451416016	-1157.263549804688	47.03779602050781	78.60971832275391	-1191.353515625	50.27677917480469	171.0543670654297	-1360.342407226562	46.53807830810547	91.27234649658203	
3	0.02	-1369.992065429688	1038.3251953125	94.80787658691406	-1378.635375976562	1026.5791015625	-79.93767547607422	-1371.849609375	1085.225341796875	0.5794761776924133	-1125.637939453125	1287.318969726562	1.350893974304199	-1392.606079101562	1219.99755859375	-4.47172212600708	-1335.109375	1487.156127929688	-9.917943954467773	-1155.842651367188	1402.0400390625	-3.124774217605591	-1399.314453125	1349.114624023438	66.07668304443359	-1353.6650390625	1447.70556640625	-112.8229751586914	-1247.588623046875	1451.383056640625	-182.2270202636719	-1258.1328125	1321.858032226562	-257.5037841796875	-1230.385864257812	1106.891235351562	-270.2047424316406	-1299.598266601562	1092.712158203125	-189.9499816894531	-1139.325073242188	870.7431640625	-194.4158935546875	-1191.388427734375	857.6600952148438	-259.1630554199219	-1206.1171875	998.6436157226562	-273.7496948242188	-1128.177368164062	684.7089233398438	-169.7192687988281	-1157.083129882812	777.582275390625	-250.1028594970703	-1116.892822265625	787.4197387695312	-195.2444610595703	-1276.009155273438	1452.070068359375	168.8595123291016	-1284.544921875	1380.584838867188	233.9350738525391	-1299.332153320312	1111.447998046875	253.9353179931641	-1282.984619140625	1092.086303710938	155.5780639648438	-1152.216552734375	864.7055053710938	216.6432189941406	-1222.615966796875	848.2067260742188	266.9083862304688	-1283.748657226562	1033.782592773438	259.1737060546875	-1140.319458007812	677.41650390625	202.6570892333984	-1124.911254882812	764.71630859375	218.4330139160156	-1182.351196289062	760.3671875	271.3079223632812	-1324.497924804688	1640.438598632812	52.84868621826172	-1141.2548828125	1717.20751953125	-46.81906127929688	-1168.038330078125	1707.309936523438	75.60945129394531	-1305.628784179688	1656.665649414062	-82.71925354003906	-1273.107666015625	962.2249145507812	-167.5790710449219	-1302.76171875	970.2257080078125	175.2082214355469	-1179.0947265625	984.0372314453125	152.3500366210938	-1161.08544921875	974.1359252929688	-116.5629425048828	-1181.878784179688	503.1468811035156	-123.3164978027344	-1220.19921875	641.8779907226562	-157.9099884033203	-1327.298461914062	53.59721374511719	-141.6004486083984	-1260.65380859375	264.8048095703125	-146.4944000244141	-1120.213134765625	46.76042175292969	-153.4179077148438	-1165.182006835938	46.18025970458984	-95.32077026367188	-1226.553833007812	45.85001373291016	-187.9772644042969	-1371.590209960938	50.13664245605469	-60.53215026855469	-1207.957763671875	521.1176147460938	152.3212738037109	-1212.643432617188	792.05859375	182.2354736328125	-1314.5283203125	46.3750114440918	149.8367767333984	-1232.148803710938	397.5075378417969	158.3501434326172	-1096.625732421875	43.66782760620117	121.0774688720703	-1157.260498046875	47.03855514526367	78.60232543945312	-1191.34130859375	50.25410842895508	171.0490264892578	-1360.410400390625	46.59256362915039	91.15531158447266	
4	0.03	-1369.849731445312	1038.309814453125	94.84180450439453	-1378.584106445312	1026.583129882812	-79.9356689453125	-1371.745727539062	1085.201782226562	0.6080734133720398	-1125.578979492188	1287.30322265625	1.360176920890808	-1392.553833007812	1219.969604492188	-4.470438957214355	-1335.041259765625	1487.124389648438	-9.876792907714844	-1155.804565429688	1402.028198242188	-3.126306056976318	-1399.274780273438	1349.091430664062	66.06923675537109	-1353.614013671875	1447.682373046875	-112.8224563598633	-1247.521118164062	1451.374755859375	-182.2165222167969	-1258.009887695312	1321.836791992188	-257.476318359375	-1230.156494140625	1106.893432617188	-270.1835021972656	-1299.427978515625	1092.667602539062	-189.9458923339844	-1139.138061523438	870.743896484375	-194.4740447998047	-1191.143188476562	857.612060546875	-259.23779296875	-1205.958618164062	998.6409912109375	-273.7811584472656	-1127.934814453125	684.6800537109375	-169.8476257324219	-1156.807373046875	777.5943603515625	-250.2715911865234	-1116.615478515625	787.4404907226562	-195.3529357910156	-1275.924194335938	1452.0361328125	168.8905487060547	-1284.486938476562	1380.552734375	233.9391937255859	-1299.341918945312	1111.3974609375	253.8790588378906	-1282.9990234375	1092.080322265625	155.4988555908203	-1152.2900390625	864.5836791992188	216.5121154785156	-1222.688232421875	848.1294555664062	266.7936401367188	-1283.773803710938	1033.744262695312	259.092529296875	-1140.507568359375	677.285888671875	202.4507446289062	-1125.070678710938	764.6228637695312	218.2471771240234	-1182.33984375	760.2869873046875	271.1484375	-1324.348754882812	1640.52099609375	52.91033935546875	-1141.051147460938	1717.169067382812	-46.78260803222656	-1167.83837890625	1707.236694335938	75.63211059570312	-1305.519653320312	1656.70361328125	-82.73090362548828	-1272.9794921875	962.2279663085938	-167.5650634765625	-1302.619140625	970.20166015625	175.2131652832031	-1178.98388671875	984.0332641601562	152.3116912841797	-1161.017456054688	974.1383666992188	-116.5815887451172	-1181.8642578125	503.1422424316406	-123.3295135498047	-1220.141967773438	641.874755859375	-157.9052886962891	-1327.296508789062	53.59894943237305	-141.6040344238281	-1260.63330078125	264.8078918457031	-146.5069274902344	-1120.214721679688	46.75811004638672	-153.4265899658203	-1165.186157226562	46.18141937255859	-95.322021484375	-1226.554443359375	45.84674835205078	-187.9787139892578	-1371.588623046875	50.13810348510742	-60.53203201293945	-1207.85302734375	521.0944213867188	152.2979888916016	-1212.435302734375	792.0241088867188	182.2110900878906	-1314.5537109375	46.40643692016602	149.8092803955078	-1232.033935546875	397.4884948730469	158.3280639648438	-1096.620727539062	43.65995788574219	121.0709533691406	-1157.250732421875	47.03587341308594	78.59542083740234	-1191.332763671875	50.21728897094727	171.0425109863281	-1360.472900390625	46.64846801757812	91.04866790771484	
